<?xml version="1.0" encoding="UTF-8" standalone="no"?>
<!-- Created with Inkscape (http://www.inkscape.org/) -->

<svg
   xmlns:dc="http://purl.org/dc/elements/1.1/"
   xmlns:cc="http://creativecommons.org/ns#"
   xmlns:rdf="http://www.w3.org/1999/02/22-rdf-syntax-ns#"
   xmlns:svg="http://www.w3.org/2000/svg"
   xmlns="http://www.w3.org/2000/svg"
   xmlns:sodipodi="http://sodipodi.sourceforge.net/DTD/sodipodi-0.dtd"
   xmlns:inkscape="http://www.inkscape.org/namespaces/inkscape"
   width="97.315361mm"
   height="50.895763mm"
   viewBox="0 0 97.315361 50.895763"
   version="1.1"
   id="svg49343"
   inkscape:version="0.92.5 (2060ec1f9f, 2020-04-08)"
   sodipodi:docname="cg-pattern.svg">
  <defs
     id="defs49337" />
  <sodipodi:namedview
     id="base"
     pagecolor="#ffffff"
     bordercolor="#666666"
     borderopacity="1.0"
     inkscape:pageopacity="0.0"
     inkscape:pageshadow="2"
     inkscape:zoom="1.24"
     inkscape:cx="40.518251"
     inkscape:cy="66.490571"
     inkscape:document-units="mm"
     inkscape:current-layer="layer1"
     showgrid="false"
     inkscape:object-paths="true"
     inkscape:window-width="1907"
     inkscape:window-height="1001"
     inkscape:window-x="1065"
     inkscape:window-y="117"
     inkscape:window-maximized="0"
     fit-margin-top="3"
     fit-margin-left="3"
     fit-margin-right="3"
     fit-margin-bottom="3"
     inkscape:snap-page="true" />
  <metadata
     id="metadata49340">
    <rdf:RDF>
      <cc:Work
         rdf:about="">
        <dc:format>image/svg+xml</dc:format>
        <dc:type
           rdf:resource="http://purl.org/dc/dcmitype/StillImage" />
        <dc:title></dc:title>
      </cc:Work>
    </rdf:RDF>
  </metadata>
  <g
     inkscape:label="Layer 1"
     inkscape:groupmode="layer"
     id="layer1"
     transform="translate(-21.586123,-47.2838)">
    <rect
       style="fill:#ffffff;fill-opacity:1;stroke:none;stroke-width:0.56499994;stroke-miterlimit:4;stroke-dasharray:none;stroke-dashoffset:0;stroke-opacity:1"
       id="rect1015"
       width="97.315361"
       height="50.895763"
       x="21.586123"
       y="47.283798" />
    <path
       style="display:inline;fill:#cccccc;fill-opacity:1;fill-rule:nonzero;stroke:none;stroke-width:1.33333325"
       d="M 16.955078 79.544922 L 16.955078 82.898438 L 20.302734 82.898438 L 20.302734 79.544922 L 16.955078 79.544922 z M 20.957031 79.544922 L 20.957031 82.898438 L 24.302734 82.898438 L 24.302734 79.544922 L 20.957031 79.544922 z M 24.955078 79.544922 L 24.955078 82.898438 L 28.302734 82.898438 L 28.302734 79.544922 L 24.955078 79.544922 z M 28.957031 79.544922 L 28.957031 82.898438 L 32.302734 82.898438 L 32.302734 79.544922 L 28.957031 79.544922 z M 32.955078 79.544922 L 32.955078 82.898438 L 36.302734 82.898438 L 36.302734 79.544922 L 32.955078 79.544922 z M 116.95508 79.544922 L 116.95508 82.898438 L 120.30273 82.898438 L 120.30273 79.544922 L 116.95508 79.544922 z M 120.95703 79.544922 L 120.95703 82.898438 L 124.30273 82.898438 L 124.30273 79.544922 L 120.95703 79.544922 z M 124.95508 79.544922 L 124.95508 82.898438 L 128.30273 82.898438 L 128.30273 79.544922 L 124.95508 79.544922 z M 128.95703 79.544922 L 128.95703 82.898438 L 132.30273 82.898438 L 132.30273 79.544922 L 128.95703 79.544922 z M 132.95508 79.544922 L 132.95508 82.898438 L 136.30273 82.898438 L 136.30273 79.544922 L 132.95508 79.544922 z M 276.95508 79.544922 L 276.95508 82.898438 L 280.30273 82.898438 L 280.30273 79.544922 L 276.95508 79.544922 z M 280.95703 79.544922 L 280.95703 82.898438 L 284.30273 82.898438 L 284.30273 79.544922 L 280.95703 79.544922 z M 284.95508 79.544922 L 284.95508 82.898438 L 288.30273 82.898438 L 288.30273 79.544922 L 284.95508 79.544922 z M 288.95703 79.544922 L 288.95703 82.898438 L 292.30273 82.898438 L 292.30273 79.544922 L 288.95703 79.544922 z M 292.95508 79.544922 L 292.95508 82.898438 L 296.30273 82.898438 L 296.30273 79.544922 L 292.95508 79.544922 z M 16.955078 83.550781 L 16.955078 86.902344 L 20.302734 86.902344 L 20.302734 83.550781 L 16.955078 83.550781 z M 20.957031 83.550781 L 20.957031 86.902344 L 24.302734 86.902344 L 24.302734 83.550781 L 20.957031 83.550781 z M 24.955078 83.550781 L 24.955078 86.902344 L 28.302734 86.902344 L 28.302734 83.550781 L 24.955078 83.550781 z M 28.957031 83.550781 L 28.957031 86.902344 L 32.302734 86.902344 L 32.302734 83.550781 L 28.957031 83.550781 z M 32.955078 83.550781 L 32.955078 86.902344 L 36.302734 86.902344 L 36.302734 83.550781 L 32.955078 83.550781 z M 116.95508 83.550781 L 116.95508 86.902344 L 120.30273 86.902344 L 120.30273 83.550781 L 116.95508 83.550781 z M 120.95703 83.550781 L 120.95703 86.902344 L 124.30273 86.902344 L 124.30273 83.550781 L 120.95703 83.550781 z M 124.95508 83.550781 L 124.95508 86.902344 L 128.30273 86.902344 L 128.30273 83.550781 L 124.95508 83.550781 z M 128.95703 83.550781 L 128.95703 86.902344 L 132.30273 86.902344 L 132.30273 83.550781 L 128.95703 83.550781 z M 132.95508 83.550781 L 132.95508 86.902344 L 136.30273 86.902344 L 136.30273 83.550781 L 132.95508 83.550781 z M 276.95508 83.550781 L 276.95508 86.902344 L 280.30273 86.902344 L 280.30273 83.550781 L 276.95508 83.550781 z M 280.95703 83.550781 L 280.95703 86.902344 L 284.30273 86.902344 L 284.30273 83.550781 L 280.95703 83.550781 z M 284.95508 83.550781 L 284.95508 86.902344 L 288.30273 86.902344 L 288.30273 83.550781 L 284.95508 83.550781 z M 288.95703 83.550781 L 288.95703 86.902344 L 292.30273 86.902344 L 292.30273 83.550781 L 288.95703 83.550781 z M 292.95508 83.550781 L 292.95508 86.902344 L 296.30273 86.902344 L 296.30273 83.550781 L 292.95508 83.550781 z M 16.955078 87.554688 L 16.955078 90.90625 L 20.302734 90.90625 L 20.302734 87.554688 L 16.955078 87.554688 z M 20.957031 87.554688 L 20.957031 90.90625 L 24.302734 90.90625 L 24.302734 87.554688 L 20.957031 87.554688 z M 24.955078 87.554688 L 24.955078 90.90625 L 28.302734 90.90625 L 28.302734 87.554688 L 24.955078 87.554688 z M 28.957031 87.554688 L 28.957031 90.90625 L 32.302734 90.90625 L 32.302734 87.554688 L 28.957031 87.554688 z M 32.955078 87.554688 L 32.955078 90.90625 L 36.302734 90.90625 L 36.302734 87.554688 L 32.955078 87.554688 z M 116.95508 87.554688 L 116.95508 90.90625 L 120.30273 90.90625 L 120.30273 87.554688 L 116.95508 87.554688 z M 120.95703 87.554688 L 120.95703 90.90625 L 124.30273 90.90625 L 124.30273 87.554688 L 120.95703 87.554688 z M 124.95508 87.554688 L 124.95508 90.90625 L 128.30273 90.90625 L 128.30273 87.554688 L 124.95508 87.554688 z M 128.95703 87.554688 L 128.95703 90.90625 L 132.30273 90.90625 L 132.30273 87.554688 L 128.95703 87.554688 z M 132.95508 87.554688 L 132.95508 90.90625 L 136.30273 90.90625 L 136.30273 87.554688 L 132.95508 87.554688 z M 276.95508 87.554688 L 276.95508 90.90625 L 280.30273 90.90625 L 280.30273 87.554688 L 276.95508 87.554688 z M 280.95703 87.554688 L 280.95703 90.90625 L 284.30273 90.90625 L 284.30273 87.554688 L 280.95703 87.554688 z M 284.95508 87.554688 L 284.95508 90.90625 L 288.30273 90.90625 L 288.30273 87.554688 L 284.95508 87.554688 z M 288.95703 87.554688 L 288.95703 90.90625 L 292.30273 90.90625 L 292.30273 87.554688 L 288.95703 87.554688 z M 292.95508 87.554688 L 292.95508 90.90625 L 296.30273 90.90625 L 296.30273 87.554688 L 292.95508 87.554688 z M 16.955078 91.560547 L 16.955078 94.912109 L 20.302734 94.912109 L 20.302734 91.560547 L 16.955078 91.560547 z M 20.957031 91.560547 L 20.957031 94.912109 L 24.302734 94.912109 L 24.302734 91.560547 L 20.957031 91.560547 z M 24.955078 91.560547 L 24.955078 94.912109 L 28.302734 94.912109 L 28.302734 91.560547 L 24.955078 91.560547 z M 28.957031 91.560547 L 28.957031 94.912109 L 32.302734 94.912109 L 32.302734 91.560547 L 28.957031 91.560547 z M 32.955078 91.560547 L 32.955078 94.912109 L 36.302734 94.912109 L 36.302734 91.560547 L 32.955078 91.560547 z M 116.95508 91.560547 L 116.95508 94.912109 L 120.30273 94.912109 L 120.30273 91.560547 L 116.95508 91.560547 z M 120.95703 91.560547 L 120.95703 94.912109 L 124.30273 94.912109 L 124.30273 91.560547 L 120.95703 91.560547 z M 124.95508 91.560547 L 124.95508 94.912109 L 128.30273 94.912109 L 128.30273 91.560547 L 124.95508 91.560547 z M 128.95703 91.560547 L 128.95703 94.912109 L 132.30273 94.912109 L 132.30273 91.560547 L 128.95703 91.560547 z M 132.95508 91.560547 L 132.95508 94.912109 L 136.30273 94.912109 L 136.30273 91.560547 L 132.95508 91.560547 z M 276.95508 91.560547 L 276.95508 94.912109 L 280.30273 94.912109 L 280.30273 91.560547 L 276.95508 91.560547 z M 280.95703 91.560547 L 280.95703 94.912109 L 284.30273 94.912109 L 284.30273 91.560547 L 280.95703 91.560547 z M 284.95508 91.560547 L 284.95508 94.912109 L 288.30273 94.912109 L 288.30273 91.560547 L 284.95508 91.560547 z M 288.95703 91.560547 L 288.95703 94.912109 L 292.30273 94.912109 L 292.30273 91.560547 L 288.95703 91.560547 z M 292.95508 91.560547 L 292.95508 94.912109 L 296.30273 94.912109 L 296.30273 91.560547 L 292.95508 91.560547 z M 16.955078 95.484375 L 16.955078 98.835938 L 20.302734 98.835938 L 20.302734 95.484375 L 16.955078 95.484375 z M 20.957031 95.484375 L 20.957031 98.835938 L 24.302734 98.835938 L 24.302734 95.484375 L 20.957031 95.484375 z M 24.955078 95.484375 L 24.955078 98.835938 L 28.302734 98.835938 L 28.302734 95.484375 L 24.955078 95.484375 z M 28.957031 95.484375 L 28.957031 98.835938 L 32.302734 98.835938 L 32.302734 95.484375 L 28.957031 95.484375 z M 32.955078 95.484375 L 32.955078 98.835938 L 36.302734 98.835938 L 36.302734 95.484375 L 32.955078 95.484375 z M 116.95508 95.484375 L 116.95508 98.835938 L 120.30273 98.835938 L 120.30273 95.484375 L 116.95508 95.484375 z M 120.95703 95.484375 L 120.95703 98.835938 L 124.30273 98.835938 L 124.30273 95.484375 L 120.95703 95.484375 z M 124.95508 95.484375 L 124.95508 98.835938 L 128.30273 98.835938 L 128.30273 95.484375 L 124.95508 95.484375 z M 128.95703 95.484375 L 128.95703 98.835938 L 132.30273 98.835938 L 132.30273 95.484375 L 128.95703 95.484375 z M 132.95508 95.484375 L 132.95508 98.835938 L 136.30273 98.835938 L 136.30273 95.484375 L 132.95508 95.484375 z M 276.95508 95.484375 L 276.95508 98.835938 L 280.30273 98.835938 L 280.30273 95.484375 L 276.95508 95.484375 z M 280.95703 95.484375 L 280.95703 98.835938 L 284.30273 98.835938 L 284.30273 95.484375 L 280.95703 95.484375 z M 284.95508 95.484375 L 284.95508 98.835938 L 288.30273 98.835938 L 288.30273 95.484375 L 284.95508 95.484375 z M 288.95703 95.484375 L 288.95703 98.835938 L 292.30273 98.835938 L 292.30273 95.484375 L 288.95703 95.484375 z M 292.95508 95.484375 L 292.95508 98.835938 L 296.30273 98.835938 L 296.30273 95.484375 L 292.95508 95.484375 z M 16.955078 99.488281 L 16.955078 102.83984 L 20.302734 102.83984 L 20.302734 99.488281 L 16.955078 99.488281 z M 20.957031 99.488281 L 20.957031 102.83984 L 24.302734 102.83984 L 24.302734 99.488281 L 20.957031 99.488281 z M 24.955078 99.488281 L 24.955078 102.83984 L 28.302734 102.83984 L 28.302734 99.488281 L 24.955078 99.488281 z M 28.957031 99.488281 L 28.957031 102.83984 L 32.302734 102.83984 L 32.302734 99.488281 L 28.957031 99.488281 z M 32.955078 99.488281 L 32.955078 102.83984 L 36.302734 102.83984 L 36.302734 99.488281 L 32.955078 99.488281 z M 116.95508 99.488281 L 116.95508 102.83984 L 120.30273 102.83984 L 120.30273 99.488281 L 116.95508 99.488281 z M 120.95703 99.488281 L 120.95703 102.83984 L 124.30273 102.83984 L 124.30273 99.488281 L 120.95703 99.488281 z M 124.95508 99.488281 L 124.95508 102.83984 L 128.30273 102.83984 L 128.30273 99.488281 L 124.95508 99.488281 z M 128.95703 99.488281 L 128.95703 102.83984 L 132.30273 102.83984 L 132.30273 99.488281 L 128.95703 99.488281 z M 132.95508 99.488281 L 132.95508 102.83984 L 136.30273 102.83984 L 136.30273 99.488281 L 132.95508 99.488281 z M 276.95508 99.488281 L 276.95508 102.83984 L 280.30273 102.83984 L 280.30273 99.488281 L 276.95508 99.488281 z M 280.95703 99.488281 L 280.95703 102.83984 L 284.30273 102.83984 L 284.30273 99.488281 L 280.95703 99.488281 z M 284.95508 99.488281 L 284.95508 102.83984 L 288.30273 102.83984 L 288.30273 99.488281 L 284.95508 99.488281 z M 288.95703 99.488281 L 288.95703 102.83984 L 292.30273 102.83984 L 292.30273 99.488281 L 288.95703 99.488281 z M 292.95508 99.488281 L 292.95508 102.83984 L 296.30273 102.83984 L 296.30273 99.488281 L 292.95508 99.488281 z M 16.955078 103.57422 L 16.955078 106.92578 L 20.302734 106.92578 L 20.302734 103.57422 L 16.955078 103.57422 z M 20.957031 103.57422 L 20.957031 106.92578 L 24.302734 106.92578 L 24.302734 103.57422 L 20.957031 103.57422 z M 24.955078 103.57422 L 24.955078 106.92578 L 28.302734 106.92578 L 28.302734 103.57422 L 24.955078 103.57422 z M 28.957031 103.57422 L 28.957031 106.92578 L 32.302734 106.92578 L 32.302734 103.57422 L 28.957031 103.57422 z M 32.955078 103.57422 L 32.955078 106.92578 L 36.302734 106.92578 L 36.302734 103.57422 L 32.955078 103.57422 z M 116.95508 103.57422 L 116.95508 106.92578 L 120.30273 106.92578 L 120.30273 103.57422 L 116.95508 103.57422 z M 120.95703 103.57422 L 120.95703 106.92578 L 124.30273 106.92578 L 124.30273 103.57422 L 120.95703 103.57422 z M 124.95508 103.57422 L 124.95508 106.92578 L 128.30273 106.92578 L 128.30273 103.57422 L 124.95508 103.57422 z M 128.95703 103.57422 L 128.95703 106.92578 L 132.30273 106.92578 L 132.30273 103.57422 L 128.95703 103.57422 z M 132.95508 103.57422 L 132.95508 106.92578 L 136.30273 106.92578 L 136.30273 103.57422 L 132.95508 103.57422 z M 276.95508 103.57422 L 276.95508 106.92578 L 280.30273 106.92578 L 280.30273 103.57422 L 276.95508 103.57422 z M 280.95703 103.57422 L 280.95703 106.92578 L 284.30273 106.92578 L 284.30273 103.57422 L 280.95703 103.57422 z M 284.95508 103.57422 L 284.95508 106.92578 L 288.30273 106.92578 L 288.30273 103.57422 L 284.95508 103.57422 z M 288.95703 103.57422 L 288.95703 106.92578 L 292.30273 106.92578 L 292.30273 103.57422 L 288.95703 103.57422 z M 292.95508 103.57422 L 292.95508 106.92578 L 296.30273 106.92578 L 296.30273 103.57422 L 292.95508 103.57422 z M 16.955078 107.58008 L 16.955078 110.92969 L 20.302734 110.92969 L 20.302734 107.58008 L 16.955078 107.58008 z M 20.957031 107.58008 L 20.957031 110.92969 L 24.302734 110.92969 L 24.302734 107.58008 L 20.957031 107.58008 z M 24.955078 107.58008 L 24.955078 110.92969 L 28.302734 110.92969 L 28.302734 107.58008 L 24.955078 107.58008 z M 28.957031 107.58008 L 28.957031 110.92969 L 32.302734 110.92969 L 32.302734 107.58008 L 28.957031 107.58008 z M 32.955078 107.58008 L 32.955078 110.92969 L 36.302734 110.92969 L 36.302734 107.58008 L 32.955078 107.58008 z M 116.95508 107.58008 L 116.95508 110.92969 L 120.30273 110.92969 L 120.30273 107.58008 L 116.95508 107.58008 z M 120.95703 107.58008 L 120.95703 110.92969 L 124.30273 110.92969 L 124.30273 107.58008 L 120.95703 107.58008 z M 124.95508 107.58008 L 124.95508 110.92969 L 128.30273 110.92969 L 128.30273 107.58008 L 124.95508 107.58008 z M 128.95703 107.58008 L 128.95703 110.92969 L 132.30273 110.92969 L 132.30273 107.58008 L 128.95703 107.58008 z M 132.95508 107.58008 L 132.95508 110.92969 L 136.30273 110.92969 L 136.30273 107.58008 L 132.95508 107.58008 z M 276.95508 107.58008 L 276.95508 110.92969 L 280.30273 110.92969 L 280.30273 107.58008 L 276.95508 107.58008 z M 280.95703 107.58008 L 280.95703 110.92969 L 284.30273 110.92969 L 284.30273 107.58008 L 280.95703 107.58008 z M 284.95508 107.58008 L 284.95508 110.92969 L 288.30273 110.92969 L 288.30273 107.58008 L 284.95508 107.58008 z M 288.95703 107.58008 L 288.95703 110.92969 L 292.30273 110.92969 L 292.30273 107.58008 L 288.95703 107.58008 z M 292.95508 107.58008 L 292.95508 110.92969 L 296.30273 110.92969 L 296.30273 107.58008 L 292.95508 107.58008 z "
       transform="matrix(0.26458333,0,0,0.26458333,21.586123,47.2838)"
       id="path4755" />
    <text
       xml:space="preserve"
       style="font-style:normal;font-weight:normal;font-size:4.93888855px;line-height:1.25;font-family:sans-serif;letter-spacing:0px;word-spacing:0px;display:inline;fill:#000000;fill-opacity:1;stroke:none;stroke-width:0.26458332"
       x="43.748878"
       y="95.129608"
       id="text28652"><tspan
         sodipodi:role="line"
         id="tspan28650"
         x="43.748878"
         y="95.129608"
         style="font-size:3.52777767px;text-align:center;text-anchor:middle;stroke-width:0.26458332">C07</tspan></text>
    <text
       id="text32162"
       y="52.902073"
       x="43.867981"
       style="font-style:normal;font-weight:normal;font-size:4.93888855px;line-height:1.25;font-family:sans-serif;letter-spacing:0px;word-spacing:0px;display:inline;fill:#000000;fill-opacity:1;stroke:none;stroke-width:0.26458332"
       xml:space="preserve"><tspan
         style="font-size:3.52777767px;text-align:center;text-anchor:middle;stroke-width:0.26458332"
         y="52.902073"
         x="43.867981"
         id="tspan32160"
         sodipodi:role="line">C00</tspan></text>
    <text
       xml:space="preserve"
       style="font-style:normal;font-weight:normal;font-size:4.93888855px;line-height:1.25;font-family:sans-serif;letter-spacing:0px;word-spacing:0px;display:inline;fill:#000000;fill-opacity:1;stroke:none;stroke-width:0.26458332"
       x="43.748878"
       y="58.951717"
       id="text28628"><tspan
         sodipodi:role="line"
         id="tspan28626"
         x="43.748878"
         y="58.951717"
         style="font-size:3.52777767px;text-align:center;text-anchor:middle;stroke-width:0.26458332">C01</tspan></text>
    <text
       id="text28632"
       y="64.98423"
       x="43.748878"
       style="font-style:normal;font-weight:normal;font-size:4.93888855px;line-height:1.25;font-family:sans-serif;letter-spacing:0px;word-spacing:0px;display:inline;fill:#000000;fill-opacity:1;stroke:none;stroke-width:0.26458332"
       xml:space="preserve"><tspan
         style="font-size:3.52777767px;text-align:center;text-anchor:middle;stroke-width:0.26458332"
         y="64.98423"
         x="43.748878"
         id="tspan28630"
         sodipodi:role="line">C02</tspan></text>
    <text
       xml:space="preserve"
       style="font-style:normal;font-weight:normal;font-size:4.93888855px;line-height:1.25;font-family:sans-serif;letter-spacing:0px;word-spacing:0px;display:inline;fill:#000000;fill-opacity:1;stroke:none;stroke-width:0.26458332"
       x="43.748878"
       y="71.016716"
       id="text28636"><tspan
         sodipodi:role="line"
         id="tspan28634"
         x="43.748878"
         y="71.016716"
         style="font-size:3.52777767px;text-align:center;text-anchor:middle;stroke-width:0.26458332">C03</tspan></text>
    <text
       id="text28640"
       y="77.049225"
       x="43.748878"
       style="font-style:normal;font-weight:normal;font-size:4.93888855px;line-height:1.25;font-family:sans-serif;letter-spacing:0px;word-spacing:0px;display:inline;fill:#000000;fill-opacity:1;stroke:none;stroke-width:0.26458332"
       xml:space="preserve"><tspan
         style="font-size:3.52777767px;text-align:center;text-anchor:middle;stroke-width:0.26458332"
         y="77.049225"
         x="43.748878"
         id="tspan28638"
         sodipodi:role="line">C04</tspan></text>
    <text
       xml:space="preserve"
       style="font-style:normal;font-weight:normal;font-size:4.93888855px;line-height:1.25;font-family:sans-serif;letter-spacing:0px;word-spacing:0px;display:inline;fill:#000000;fill-opacity:1;stroke:none;stroke-width:0.26458332"
       x="43.748878"
       y="83.081726"
       id="text28644"><tspan
         sodipodi:role="line"
         id="tspan28642"
         x="43.748878"
         y="83.081726"
         style="font-size:3.52777767px;text-align:center;text-anchor:middle;stroke-width:0.26458332">C05</tspan></text>
    <text
       id="text28648"
       y="89.114235"
       x="43.748878"
       style="font-style:normal;font-weight:normal;font-size:4.93888855px;line-height:1.25;font-family:sans-serif;letter-spacing:0px;word-spacing:0px;display:inline;fill:#000000;fill-opacity:1;stroke:none;stroke-width:0.26458332"
       xml:space="preserve"><tspan
         style="font-size:3.52777767px;text-align:center;text-anchor:middle;stroke-width:0.26458332"
         y="89.114235"
         x="43.748878"
         id="tspan28646"
         sodipodi:role="line">C06</tspan></text>
    <path
       style="fill:none;stroke:#000000;stroke-width:0.26458332px;stroke-linecap:butt;stroke-linejoin:miter;stroke-opacity:1"
       d="m 31.644861,68.783893 h 1.827773 l 4.486713,-16.74464 h 1.709307"
       id="path49633"
       inkscape:connector-curvature="0"
       sodipodi:nodetypes="cccc" />
    <path
       style="fill:none;stroke:#000000;stroke-width:0.26458332px;stroke-linecap:butt;stroke-linejoin:miter;stroke-opacity:1"
       d="m 31.644861,69.843637 h 2.255289 l 4.059196,-11.960693 h 1.709308"
       id="path49635"
       inkscape:connector-curvature="0" />
    <path
       style="fill:none;stroke:#000000;stroke-width:0.26458332px;stroke-linecap:butt;stroke-linejoin:miter;stroke-opacity:1"
       d="m 31.644861,70.903026 h 2.629368 l 3.685117,-7.088262 h 1.709308"
       id="path49641"
       inkscape:connector-curvature="0" />
    <path
       style="fill:none;stroke:#000000;stroke-width:0.26458332px;stroke-linecap:butt;stroke-linejoin:miter;stroke-opacity:1"
       d="m 31.644861,71.962772 h 3.110328 l 3.204157,-2.10931 h 1.709308"
       id="path49643"
       inkscape:connector-curvature="0" />
    <path
       sodipodi:nodetypes="cccc"
       inkscape:connector-curvature="0"
       id="path49653"
       d="m 31.644861,76.201045 h 1.827773 l 4.486713,16.74464 h 1.709307"
       style="fill:none;stroke:#000000;stroke-width:0.26458332px;stroke-linecap:butt;stroke-linejoin:miter;stroke-opacity:1" />
    <path
       inkscape:connector-curvature="0"
       id="path49655"
       d="m 31.644861,75.141301 h 2.255289 l 4.059196,11.960693 h 1.709308"
       style="fill:none;stroke:#000000;stroke-width:0.26458332px;stroke-linecap:butt;stroke-linejoin:miter;stroke-opacity:1" />
    <path
       inkscape:connector-curvature="0"
       id="path49657"
       d="m 31.644861,74.081912 h 2.629368 l 3.685117,7.088262 h 1.709308"
       style="fill:none;stroke:#000000;stroke-width:0.26458332px;stroke-linecap:butt;stroke-linejoin:miter;stroke-opacity:1" />
    <path
       inkscape:connector-curvature="0"
       id="path49659"
       d="m 31.644861,73.022166 h 3.110328 l 3.204157,2.10931 h 1.709308"
       style="fill:none;stroke:#000000;stroke-width:0.26458332px;stroke-linecap:butt;stroke-linejoin:miter;stroke-opacity:1" />
    <text
       y="62.189827"
       x="28.835497"
       id="text48744"
       style="font-variant:normal;font-weight:normal;font-size:2.82222223px;font-family:Helvetica;-inkscape-font-specification:Helvetica;text-align:center;writing-mode:lr-tb;text-anchor:middle;display:inline;fill:#000000;fill-opacity:1;fill-rule:nonzero;stroke:none;stroke-width:0.35256785"
       transform="scale(0.99940496,1.0005954)">
      <tspan
         style="font-size:2.82222223px;text-align:center;text-anchor:middle;stroke-width:0.35256785"
         sodipodi:role="line"
         y="62.189827"
         x="28.835497"
         id="tspan49691">CG0</tspan>
      <tspan
         style="font-size:2.82222223px;text-align:center;text-anchor:middle;stroke-width:0.35256785"
         sodipodi:role="line"
         y="65.717606"
         x="28.835497"
         id="tspan49702">pattern</tspan>
    </text>
    <text
       id="text49786"
       y="95.129608"
       x="70.207214"
       style="font-style:normal;font-weight:normal;font-size:4.93888855px;line-height:1.25;font-family:sans-serif;letter-spacing:0px;word-spacing:0px;display:inline;fill:#000000;fill-opacity:1;stroke:none;stroke-width:0.26458332"
       xml:space="preserve"><tspan
         style="font-size:3.52777767px;text-align:center;text-anchor:middle;stroke-width:0.26458332"
         y="95.129608"
         x="70.207214"
         id="tspan49784"
         sodipodi:role="line">C17</tspan></text>
    <text
       xml:space="preserve"
       style="font-style:normal;font-weight:normal;font-size:4.93888855px;line-height:1.25;font-family:sans-serif;letter-spacing:0px;word-spacing:0px;display:inline;fill:#000000;fill-opacity:1;stroke:none;stroke-width:0.26458332"
       x="70.326317"
       y="52.902073"
       id="text49790"><tspan
         sodipodi:role="line"
         id="tspan49788"
         x="70.326317"
         y="52.902073"
         style="font-size:3.52777767px;text-align:center;text-anchor:middle;stroke-width:0.26458332">C10</tspan></text>
    <text
       id="text49794"
       y="58.951717"
       x="70.207214"
       style="font-style:normal;font-weight:normal;font-size:4.93888855px;line-height:1.25;font-family:sans-serif;letter-spacing:0px;word-spacing:0px;display:inline;fill:#000000;fill-opacity:1;stroke:none;stroke-width:0.26458332"
       xml:space="preserve"><tspan
         style="font-size:3.52777767px;text-align:center;text-anchor:middle;stroke-width:0.26458332"
         y="58.951717"
         x="70.207214"
         id="tspan49792"
         sodipodi:role="line">C11</tspan></text>
    <text
       xml:space="preserve"
       style="font-style:normal;font-weight:normal;font-size:4.93888855px;line-height:1.25;font-family:sans-serif;letter-spacing:0px;word-spacing:0px;display:inline;fill:#000000;fill-opacity:1;stroke:none;stroke-width:0.26458332"
       x="70.207214"
       y="64.98423"
       id="text49798"><tspan
         sodipodi:role="line"
         id="tspan49796"
         x="70.207214"
         y="64.98423"
         style="font-size:3.52777767px;text-align:center;text-anchor:middle;stroke-width:0.26458332">C12</tspan></text>
    <text
       id="text49802"
       y="71.016716"
       x="70.207214"
       style="font-style:normal;font-weight:normal;font-size:4.93888855px;line-height:1.25;font-family:sans-serif;letter-spacing:0px;word-spacing:0px;display:inline;fill:#000000;fill-opacity:1;stroke:none;stroke-width:0.26458332"
       xml:space="preserve"><tspan
         style="font-size:3.52777767px;text-align:center;text-anchor:middle;stroke-width:0.26458332"
         y="71.016716"
         x="70.207214"
         id="tspan49800"
         sodipodi:role="line">C13</tspan></text>
    <text
       xml:space="preserve"
       style="font-style:normal;font-weight:normal;font-size:4.93888855px;line-height:1.25;font-family:sans-serif;letter-spacing:0px;word-spacing:0px;display:inline;fill:#000000;fill-opacity:1;stroke:none;stroke-width:0.26458332"
       x="70.207214"
       y="77.049225"
       id="text49806"><tspan
         sodipodi:role="line"
         id="tspan49804"
         x="70.207214"
         y="77.049225"
         style="font-size:3.52777767px;text-align:center;text-anchor:middle;stroke-width:0.26458332">C14</tspan></text>
    <text
       id="text49810"
       y="83.081726"
       x="70.207214"
       style="font-style:normal;font-weight:normal;font-size:4.93888855px;line-height:1.25;font-family:sans-serif;letter-spacing:0px;word-spacing:0px;display:inline;fill:#000000;fill-opacity:1;stroke:none;stroke-width:0.26458332"
       xml:space="preserve"><tspan
         style="font-size:3.52777767px;text-align:center;text-anchor:middle;stroke-width:0.26458332"
         y="83.081726"
         x="70.207214"
         id="tspan49808"
         sodipodi:role="line">C15</tspan></text>
    <text
       xml:space="preserve"
       style="font-style:normal;font-weight:normal;font-size:4.93888855px;line-height:1.25;font-family:sans-serif;letter-spacing:0px;word-spacing:0px;display:inline;fill:#000000;fill-opacity:1;stroke:none;stroke-width:0.26458332"
       x="70.207214"
       y="89.114235"
       id="text49814"><tspan
         sodipodi:role="line"
         id="tspan49812"
         x="70.207214"
         y="89.114235"
         style="font-size:3.52777767px;text-align:center;text-anchor:middle;stroke-width:0.26458332">C16</tspan></text>
    <path
       sodipodi:nodetypes="cccc"
       inkscape:connector-curvature="0"
       id="path49816"
       d="m 58.103196,68.783893 h 1.827773 l 4.486713,-16.74464 h 1.709307"
       style="fill:none;stroke:#000000;stroke-width:0.26458332px;stroke-linecap:butt;stroke-linejoin:miter;stroke-opacity:1" />
    <path
       inkscape:connector-curvature="0"
       id="path49818"
       d="m 58.103196,69.843637 h 2.255289 l 4.059196,-11.960693 h 1.709308"
       style="fill:none;stroke:#000000;stroke-width:0.26458332px;stroke-linecap:butt;stroke-linejoin:miter;stroke-opacity:1" />
    <path
       inkscape:connector-curvature="0"
       id="path49820"
       d="m 58.103196,70.903026 h 2.629368 l 3.685117,-7.088262 h 1.709308"
       style="fill:none;stroke:#000000;stroke-width:0.26458332px;stroke-linecap:butt;stroke-linejoin:miter;stroke-opacity:1" />
    <path
       inkscape:connector-curvature="0"
       id="path49822"
       d="m 58.103196,71.962772 h 3.110328 l 3.204157,-2.10931 h 1.709308"
       style="fill:none;stroke:#000000;stroke-width:0.26458332px;stroke-linecap:butt;stroke-linejoin:miter;stroke-opacity:1" />
    <path
       style="fill:none;stroke:#000000;stroke-width:0.26458332px;stroke-linecap:butt;stroke-linejoin:miter;stroke-opacity:1"
       d="m 58.103196,76.201045 h 1.827773 l 4.486713,16.74464 h 1.709307"
       id="path49824"
       inkscape:connector-curvature="0"
       sodipodi:nodetypes="cccc" />
    <path
       style="fill:none;stroke:#000000;stroke-width:0.26458332px;stroke-linecap:butt;stroke-linejoin:miter;stroke-opacity:1"
       d="m 58.103196,75.141301 h 2.255289 l 4.059196,11.960693 h 1.709308"
       id="path49826"
       inkscape:connector-curvature="0" />
    <path
       style="fill:none;stroke:#000000;stroke-width:0.26458332px;stroke-linecap:butt;stroke-linejoin:miter;stroke-opacity:1"
       d="m 58.103196,74.081912 h 2.629368 l 3.685117,7.088262 h 1.709308"
       id="path49828"
       inkscape:connector-curvature="0" />
    <path
       style="fill:none;stroke:#000000;stroke-width:0.26458332px;stroke-linecap:butt;stroke-linejoin:miter;stroke-opacity:1"
       d="m 58.103196,73.022166 h 3.110328 l 3.204157,2.10931 h 1.709308"
       id="path49830"
       inkscape:connector-curvature="0" />
    <text
       transform="scale(0.99940496,1.0005954)"
       style="font-variant:normal;font-weight:normal;font-size:2.82222223px;font-family:Helvetica;-inkscape-font-specification:Helvetica;text-align:center;writing-mode:lr-tb;text-anchor:middle;display:inline;fill:#000000;fill-opacity:1;fill-rule:nonzero;stroke:none;stroke-width:0.35256785"
       id="text49836"
       x="55.309589"
       y="62.189827">
      <tspan
         id="tspan49832"
         x="55.309589"
         y="62.189827"
         sodipodi:role="line"
         style="font-size:2.82222223px;text-align:center;text-anchor:middle;stroke-width:0.35256785">CG1</tspan>
      <tspan
         id="tspan49834"
         x="55.309589"
         y="65.717606"
         sodipodi:role="line"
         style="font-size:2.82222223px;text-align:center;text-anchor:middle;stroke-width:0.35256785">pattern</tspan>
    </text>
    <text
       id="text50054"
       y="95.129608"
       x="112.54053"
       style="font-style:normal;font-weight:normal;font-size:4.93888855px;line-height:1.25;font-family:sans-serif;letter-spacing:0px;word-spacing:0px;display:inline;fill:#000000;fill-opacity:1;stroke:none;stroke-width:0.26458332"
       xml:space="preserve"><tspan
         style="font-size:3.52777767px;text-align:center;text-anchor:middle;stroke-width:0.26458332"
         y="95.129608"
         x="112.54053"
         id="tspan50052"
         sodipodi:role="line">C77</tspan></text>
    <text
       xml:space="preserve"
       style="font-style:normal;font-weight:normal;font-size:4.93888855px;line-height:1.25;font-family:sans-serif;letter-spacing:0px;word-spacing:0px;display:inline;fill:#000000;fill-opacity:1;stroke:none;stroke-width:0.26458332"
       x="112.65965"
       y="52.902073"
       id="text50058"><tspan
         sodipodi:role="line"
         id="tspan50056"
         x="112.65965"
         y="52.902073"
         style="font-size:3.52777767px;text-align:center;text-anchor:middle;stroke-width:0.26458332">C70</tspan></text>
    <text
       id="text50062"
       y="58.951717"
       x="112.54053"
       style="font-style:normal;font-weight:normal;font-size:4.93888855px;line-height:1.25;font-family:sans-serif;letter-spacing:0px;word-spacing:0px;display:inline;fill:#000000;fill-opacity:1;stroke:none;stroke-width:0.26458332"
       xml:space="preserve"><tspan
         style="font-size:3.52777767px;text-align:center;text-anchor:middle;stroke-width:0.26458332"
         y="58.951717"
         x="112.54053"
         id="tspan50060"
         sodipodi:role="line">C71</tspan></text>
    <text
       xml:space="preserve"
       style="font-style:normal;font-weight:normal;font-size:4.93888855px;line-height:1.25;font-family:sans-serif;letter-spacing:0px;word-spacing:0px;display:inline;fill:#000000;fill-opacity:1;stroke:none;stroke-width:0.26458332"
       x="112.54053"
       y="64.98423"
       id="text50066"><tspan
         sodipodi:role="line"
         id="tspan50064"
         x="112.54053"
         y="64.98423"
         style="font-size:3.52777767px;text-align:center;text-anchor:middle;stroke-width:0.26458332">C72</tspan></text>
    <text
       id="text50070"
       y="71.016716"
       x="112.54053"
       style="font-style:normal;font-weight:normal;font-size:4.93888855px;line-height:1.25;font-family:sans-serif;letter-spacing:0px;word-spacing:0px;display:inline;fill:#000000;fill-opacity:1;stroke:none;stroke-width:0.26458332"
       xml:space="preserve"><tspan
         style="font-size:3.52777767px;text-align:center;text-anchor:middle;stroke-width:0.26458332"
         y="71.016716"
         x="112.54053"
         id="tspan50068"
         sodipodi:role="line">C73</tspan></text>
    <text
       xml:space="preserve"
       style="font-style:normal;font-weight:normal;font-size:4.93888855px;line-height:1.25;font-family:sans-serif;letter-spacing:0px;word-spacing:0px;display:inline;fill:#000000;fill-opacity:1;stroke:none;stroke-width:0.26458332"
       x="112.54053"
       y="77.049225"
       id="text50074"><tspan
         sodipodi:role="line"
         id="tspan50072"
         x="112.54053"
         y="77.049225"
         style="font-size:3.52777767px;text-align:center;text-anchor:middle;stroke-width:0.26458332">C74</tspan></text>
    <text
       id="text50078"
       y="83.081726"
       x="112.54053"
       style="font-style:normal;font-weight:normal;font-size:4.93888855px;line-height:1.25;font-family:sans-serif;letter-spacing:0px;word-spacing:0px;display:inline;fill:#000000;fill-opacity:1;stroke:none;stroke-width:0.26458332"
       xml:space="preserve"><tspan
         style="font-size:3.52777767px;text-align:center;text-anchor:middle;stroke-width:0.26458332"
         y="83.081726"
         x="112.54053"
         id="tspan50076"
         sodipodi:role="line">C75</tspan></text>
    <text
       xml:space="preserve"
       style="font-style:normal;font-weight:normal;font-size:4.93888855px;line-height:1.25;font-family:sans-serif;letter-spacing:0px;word-spacing:0px;display:inline;fill:#000000;fill-opacity:1;stroke:none;stroke-width:0.26458332"
       x="112.54053"
       y="89.114235"
       id="text50082"><tspan
         sodipodi:role="line"
         id="tspan50080"
         x="112.54053"
         y="89.114235"
         style="font-size:3.52777767px;text-align:center;text-anchor:middle;stroke-width:0.26458332">C76</tspan></text>
    <path
       sodipodi:nodetypes="cccc"
       inkscape:connector-curvature="0"
       id="path50084"
       d="m 100.43647,68.783893 h 1.82777 l 4.48672,-16.74464 h 1.70931"
       style="fill:none;stroke:#000000;stroke-width:0.26458332px;stroke-linecap:butt;stroke-linejoin:miter;stroke-opacity:1" />
    <path
       inkscape:connector-curvature="0"
       id="path50086"
       d="m 100.43647,69.843637 h 2.25529 l 4.0592,-11.960693 h 1.70931"
       style="fill:none;stroke:#000000;stroke-width:0.26458332px;stroke-linecap:butt;stroke-linejoin:miter;stroke-opacity:1" />
    <path
       inkscape:connector-curvature="0"
       id="path50088"
       d="m 100.43647,70.903026 h 2.62937 l 3.68512,-7.088262 h 1.70931"
       style="fill:none;stroke:#000000;stroke-width:0.26458332px;stroke-linecap:butt;stroke-linejoin:miter;stroke-opacity:1" />
    <path
       inkscape:connector-curvature="0"
       id="path50090"
       d="m 100.43647,71.962772 h 3.11033 l 3.20416,-2.10931 h 1.70931"
       style="fill:none;stroke:#000000;stroke-width:0.26458332px;stroke-linecap:butt;stroke-linejoin:miter;stroke-opacity:1" />
    <path
       style="fill:none;stroke:#000000;stroke-width:0.26458332px;stroke-linecap:butt;stroke-linejoin:miter;stroke-opacity:1"
       d="m 100.43647,76.201045 h 1.82777 l 4.48672,16.74464 h 1.70931"
       id="path50092"
       inkscape:connector-curvature="0"
       sodipodi:nodetypes="cccc" />
    <path
       style="fill:none;stroke:#000000;stroke-width:0.26458332px;stroke-linecap:butt;stroke-linejoin:miter;stroke-opacity:1"
       d="m 100.43647,75.141301 h 2.25529 l 4.0592,11.960693 h 1.70931"
       id="path50094"
       inkscape:connector-curvature="0" />
    <path
       style="fill:none;stroke:#000000;stroke-width:0.26458332px;stroke-linecap:butt;stroke-linejoin:miter;stroke-opacity:1"
       d="m 100.43647,74.081912 h 2.62937 l 3.68512,7.088262 h 1.70931"
       id="path50096"
       inkscape:connector-curvature="0" />
    <path
       style="fill:none;stroke:#000000;stroke-width:0.26458332px;stroke-linecap:butt;stroke-linejoin:miter;stroke-opacity:1"
       d="m 100.43647,73.022166 h 3.11033 l 3.20416,2.10931 h 1.70931"
       id="path50098"
       inkscape:connector-curvature="0" />
    <text
       transform="scale(0.99940496,1.0005954)"
       style="font-variant:normal;font-weight:normal;font-size:2.82222223px;font-family:Helvetica;-inkscape-font-specification:Helvetica;text-align:center;writing-mode:lr-tb;text-anchor:middle;display:inline;fill:#000000;fill-opacity:1;fill-rule:nonzero;stroke:none;stroke-width:0.35256785"
       id="text50104"
       x="97.668137"
       y="62.189827">
      <tspan
         id="tspan50100"
         x="97.668137"
         y="62.189827"
         sodipodi:role="line"
         style="font-size:2.82222223px;text-align:center;text-anchor:middle;stroke-width:0.35256785">CG7</tspan>
      <tspan
         id="tspan50102"
         x="97.668137"
         y="65.717606"
         sodipodi:role="line"
         style="font-size:2.82222223px;text-align:center;text-anchor:middle;stroke-width:0.35256785">pattern</tspan>
    </text>
    <text
       xml:space="preserve"
       style="font-style:normal;font-weight:normal;font-size:4.93888855px;line-height:1.25;font-family:sans-serif;letter-spacing:0px;word-spacing:0px;fill:#000000;fill-opacity:1;stroke:none;stroke-width:0.26458332"
       x="82.063499"
       y="72.104164"
       id="text50108"><tspan
         sodipodi:role="line"
         id="tspan50106"
         x="82.063499"
         y="72.104164"
         style="stroke-width:0.26458332">...</tspan></text>
  </g>
</svg>
